<svg xmlns="http://www.w3.org/2000/svg" viewBox="0 0 566.93 566.93"><defs><style>.cls-1{fill:#fff;}.cls-1,.cls-2{stroke:#1d1d1b;stroke-miterlimit:10;}.cls-2{fill:#1d1d1b;}</style></defs><title>Artboard 1</title><g id="Layer_1" data-name="Layer 1"><path class="cls-1" d="M401.48,151.78a95.93,95.93,0,0,0-20.28-7.26c-1-1.08-2.06-2.12-3.19-3.13,2.78-1.3,5.78-2.62,9-4a96.14,96.14,0,0,0-23.53-5.86c2.52-1.29,5.21-2.61,8.13-4a96.47,96.47,0,0,0-43.89-4.32c-1.56-.15-3.15-.27-4.77-.38,3.75-3.25,8.17-6.74,13.39-10.5a96.39,96.39,0,0,0-44.71,4.36,99.09,99.09,0,0,0-17.2,7.82c2.09-7.58,6.27-17.39,13.73-30.23a96.34,96.34,0,0,0-39,22.23A94.54,94.54,0,0,0,229,143.27a105.17,105.17,0,0,0-5.57,14.19c-13.26,24.71-9.17,60.09-3.31,98.2,9.1,59.2.45,134.27,90.61,133.23,83.09-.95,78.31-72.44,83.3-133.23,3.22-39.16,7.93-75-4.75-99.61C392.91,154.64,397,153.21,401.48,151.78Z"/><path class="cls-1" d="M394,286.73c-5,56.79-.21,123.57-83.3,124.47-90.16,1-81.51-69.17-90.61-124.47-10.93-66.45-15.73-124,87-124.47C411.12,161.81,400,218.94,394,286.73Z"/></g><g id="Glasses"><rect class="cls-2" x="208.04" y="226.55" width="12.07" height="12.07"/><rect class="cls-2" x="391.57" y="226.55" width="12.07" height="12.07"/><path class="cls-2" d="M398.11,229c-2.69-2.71-6.2-3.26-8.29-3.51a303.6,303.6,0,0,0-32.32-2.15c-14.53.77-24.79.67-31.67.41-2-.08-6.89-.29-13.7-.4-5.24-.07-7.64,0-15.26,0-6.52,0-2.69,0-42.19,0h0s-9.47-.69-32.31,2.15c-1.23.16-5.35.55-8.3,3.51a10.41,10.41,0,0,0-3.48,8.45,124.87,124.87,0,0,0,2.34,22.91c.2,1,1.22,5.8,3,12,1.92,6.75,3,8.93,3.48,10,1.46,2.92,3.07,6.11,6.15,8.5,3.83,3,8.13,3.34,11.11,3.55,22.12,1.57,36.86-.09,41.75-1.92a26.6,26.6,0,0,0,12-9.27c.16-.22.34-.46.55-.77,3.91-6.15,4.06-12.23,5.47-21.61.87-5.73,2.08-11.4,5.51-16.76,1.29-2,2.84-3.89,4.71-3.85s3.29,1.91,4.53,4c2.78,4.78,3.69,9.49,4.57,16.57,0,0,1.86,15.47,4.79,20.48.29.5.53.88.69,1.13s.38.55.55.77a26.5,26.5,0,0,0,12,9.27c4.89,1.83,19.63,3.49,41.75,1.92,3-.21,7.28-.57,11.11-3.55,3.08-2.39,4.68-5.58,6.15-8.5.52-1,1.55-3.21,3.47-10,1.76-6.19,2.79-11,3-12,2.12-10.81,3.35-16.3,2.33-22.91C400.83,232.5,399.52,230.36,398.11,229Z"/><path class="cls-1" d="M276.23,289.36c-4.45,1.67-17.85,3.18-38,1.75-2.71-.19-6.62-.52-10.1-3.22-2.8-2.18-4.26-5.08-5.59-7.73-.47-.94-1.42-2.92-3.16-9.06-1.6-5.63-2.53-10-2.71-10.9a113.54,113.54,0,0,1-2.13-20.82,9.43,9.43,0,0,1,3.17-7.69,12.26,12.26,0,0,1,7.54-3.19,276,276,0,0,1,29.37-1.95s9.58,0,28.71,1.95c1.52.16,5.2.58,7.83,3.19a11.82,11.82,0,0,1,2.6,4.1,10.66,10.66,0,0,1,.61,3.59,118.45,118.45,0,0,1-1.79,21.21c-3.08,17.52-4.56,19.1-5.48,20.35A24.15,24.15,0,0,1,276.23,289.36Z"/><path class="cls-1" d="M336,289.36c4.44,1.67,17.85,3.18,38,1.75,2.71-.19,6.63-.52,10.1-3.22,2.8-2.18,4.26-5.08,5.6-7.73.47-.94,1.41-2.92,3.16-9.06,1.6-5.63,2.52-10,2.71-10.9a113.44,113.44,0,0,0,2.12-20.82,9.46,9.46,0,0,0-3.16-7.69,12.29,12.29,0,0,0-7.54-3.19,276.11,276.11,0,0,0-29.38-1.95s-9.58,0-28.7,1.95c-1.53.16-5.2.58-7.84,3.19a11.82,11.82,0,0,0-2.6,4.1,10.9,10.9,0,0,0-.6,3.59,118.35,118.35,0,0,0,1.78,21.21c3.08,17.52,4.57,19.1,5.48,20.35A24.12,24.12,0,0,0,336,289.36Z"/></g></svg>